[center][img]http://img7.imageshack.us/img7/3161/tangleds.jpg[/img]



[img]http://leetleech.org/images/48874973695367351744.png[/img]


Format                           : AVI
Format/Info                      : Audio Video Interleave
File size                        : 1.90 GiB
Duration                         : 1h 40mn
Overall bit rate                 : 2 707 Kbps
Writing application              : VirtualDubMod 1.5.10.2 (build 2542/release)
Writing library                  : VirtualDub build 32839/release

Video
ID                               : 0
Format                           : MPEG-4 Visual
Format profile                   : Advanced Simple@L5
Format settings, BVOP            : Yes
Format settings, QPel            : No
Format settings, GMC             : No warppoints
Format settings, Matrix          : Custom
Codec ID                         : XVID
Codec ID/Hint                    : XviD
Duration                         : 1h 40mn
Bit rate                         : 2 249 Kbps
Width                            : 720 pixels
Height                           : 400 pixels
Display aspect ratio             : 16:9
Frame rate                       : 23.976 fps
Color space                      : YUV
Chroma subsampling               : 4:2:0
Bit depth                        : 8 bits
Scan type                        : Progressive
Bits/(Pixel*Frame)               : 0.326
Stream size                      : 1.58 GiB (83%)
Writing library                  : XviD 1.2.1 (UTC 2008-12-04)

Audio
ID                               : 1
Format                           : AC-3
Format/Info                      : Audio Coding 3
Mode extension                   : CM (complete main)
Codec ID                         : 2000
Duration                         : 1h 40mn
Bit rate mode                    : Constant
Bit rate                         : 448 Kbps
Channel(s)                       : 6 channels
Channel positions                : Front: L C R, Side: L R, LFE
Sampling rate                    : 48.0 KHz
Bit depth                        : 16 bits
Stream size                      : 321 MiB (17%)
Alignment                        : Split accross interleaves
Interleave, duration             : 42 ms (1.00 video frame)
Interleave, preload duration     : 500 ms




[url]http://www.imdb.com/title/tt0398286/[/url]




[IMG]http://leetleech.org/images/89524873606771859129.png[/IMG]


Storyline

After receiving the healing powers from a magical flower, the baby Princess Rapunzel is kidnapped from the palace in the middle of the night by Mother Gothel. Mother Gothel knows that the flower's magical powers are now growing within the golden hair of Rapunzel, and to stay young, she must lock Rapunzel in her hidden tower. Rapunzel is now a teenager and her hair has grown to a length of 70-feet. The beautiful Rapunzel has been in the tower her entire life, and she is curious of the outside world. One day, the bandit Flynn Ryder scales the tower and is taken captive by Rapunzel. Rapunzel strikes a deal with the charming thief to act as her guide to travel to the place where the floating lights come from that she has seen every year on her birthday. Rapunzel is about to have the most exciting and magnificent journey of her life

Users: 8.0/10 (19,510 votes) 175 reviews | Critics: 205 reviews Metascore: 71/100 (based on 34 reviews from Metacritic.com)


Directors:
Nathan Greno, Byron Howard
Writers:
Jacob Grimm (fairy tale), Wilhelm Grimm (fairy tale), and 1 more credit »
Stars:
Mandy Moore, Zachary Levi and Donna Murphy




[img]http://leetleech.org/images/95521316153253938506.png[/img]




[img]http://img851.imageshack.us/img851/1291/vlcsnap2011030113h27m17.png[/img]

[img]http://img585.imageshack.us/img585/961/vlcsnap2011030113h27m03.png[/img]

[img]http://img202.imageshack.us/img202/7683/vlcsnap2011030113h27m33.png[/img]

[img]http://img202.imageshack.us/img202/9606/vlcsnap2011030113h27m11.png[/img]



Source used


Tangled 2010 BluRay 720p DTS x264-CHD .................. Thanks 



Greetz to Imagine ,Flawl3ss ,Santi ,Vision ,Kingdom, BDK, TOXiC, iNK, THC, Ez, Rx,





[img]http://img411.imageshack.us/img411/6898/sig1n.jpg[/img]




